<svg width="138" height="40" viewBox="0 0 138 40" fill="none" xmlns="http://www.w3.org/2000/svg">
<path d="M137.233 35.3871C137.233 37.5188 135.476 39.2454 133.304 39.2454H4.70147C2.52955 39.2454 0.766602 37.5188 0.766602 35.3871V4.61824C0.766602 2.4876 2.52955 0.754883 4.70147 0.754883H133.303C135.476 0.754883 137.232 2.4876 137.232 4.61824L137.233 35.3871Z" fill="black"/>
<path d="M132.889 0.801252C135.255 0.801252 137.181 2.685 137.181 5V35C137.181 37.315 135.255 39.1988 132.889 39.1988H5.11111C2.74467 39.1988 0.819055 37.315 0.819055 35V5C0.819055 2.685 2.74467 0.801252 5.11111 0.801252H132.889ZM132.889 2.11397e-06H5.11111C2.30128 2.11397e-06 0 2.25125 0 5V35C0 37.7487 2.30128 40 5.11111 40H132.889C135.699 40 138 37.7487 138 35V5C138 2.25125 135.699 2.11397e-06 132.889 2.11397e-06Z" fill="#A6A6A6"/>
<path d="M30.7975 19.7838C30.7679 16.5608 33.4952 14.9928 33.6199 14.9198C32.0753 12.7168 29.6812 12.4158 28.84 12.3918C26.8292 12.1848 24.8788 13.5688 23.8546 13.5688C22.8099 13.5688 21.2326 12.4118 19.5326 12.4458C17.3451 12.4788 15.2986 13.7178 14.1762 15.6418C11.8598 19.5648 13.5874 25.3298 15.8066 28.5008C16.9168 30.0538 18.214 31.7878 19.9119 31.7268C21.573 31.6598 22.1935 30.6908 24.198 30.6908C26.1842 30.6908 26.7669 31.7268 28.4985 31.6878C30.2813 31.6598 31.4037 30.1278 32.475 28.5608C33.7579 26.7808 34.2731 25.0278 34.2935 24.9378C34.2516 24.9238 30.8312 23.6468 30.7975 19.7838Z" fill="white"/>
<path d="M27.5264 10.3058C28.4198 9.2128 29.0311 7.7258 28.8614 6.2168C27.5683 6.2728 25.9512 7.0918 25.0199 8.1608C24.196 9.1028 23.46 10.6468 23.6501 12.0988C25.1027 12.2048 26.5941 11.3818 27.5264 10.3058Z" fill="white"/>
<path d="M54.8372 31.504H52.5157L51.2441 27.595H46.824L45.6127 31.504H43.3525L47.7317 18.196H50.4365L54.8372 31.504ZM50.8608 25.955L49.7108 22.48C49.5891 22.125 49.3612 21.289 49.0248 19.973H48.984C48.85 20.539 48.6344 21.375 48.3379 22.48L47.2084 25.955H50.8608Z" fill="white"/>
<path d="M66.0992 26.5882C66.0992 28.2202 65.6484 29.5102 64.7468 30.4572C63.9392 31.3002 62.9364 31.7212 61.7394 31.7212C60.4473 31.7212 59.5191 31.2672 58.9539 30.3592H58.913V35.4142H56.7336V25.0672C56.7336 24.0412 56.706 22.9882 56.6528 21.9082H58.5695L58.6911 23.4292H58.732C59.4588 22.2832 60.5618 21.7112 62.042 21.7112C63.1991 21.7112 64.1651 22.1582 64.9379 23.0532C65.7128 23.9492 66.0992 25.1272 66.0992 26.5882ZM63.8789 26.6662C63.8789 25.7322 63.6643 24.9622 63.2329 24.3562C62.7616 23.7242 62.1289 23.4082 61.3356 23.4082C60.7979 23.4082 60.3093 23.5842 59.8728 23.9312C59.4353 24.2812 59.1491 24.7382 59.0152 25.3042C58.9477 25.5682 58.914 25.7842 58.914 25.9542V27.5542C58.914 28.2522 59.1327 28.8412 59.5703 29.3222C60.0078 29.8032 60.5761 30.0432 61.2753 30.0432C62.0962 30.0432 62.7351 29.7332 63.192 29.1152C63.6499 28.4962 63.8789 27.6802 63.8789 26.6662Z" fill="white"/>
<path d="M77.3814 26.5882C77.3814 28.2202 76.9306 29.5102 76.0279 30.4572C75.2214 31.3002 74.2186 31.7212 73.0216 31.7212C71.7295 31.7212 70.8013 31.2672 70.2371 30.3592H70.1962V35.4142H68.0168V25.0672C68.0168 24.0412 67.9892 22.9882 67.936 21.9082H69.8527L69.9744 23.4292H70.0152C70.741 22.2832 71.844 21.7112 73.3252 21.7112C74.4813 21.7112 75.4473 22.1582 76.2222 23.0532C76.994 23.9492 77.3814 25.1272 77.3814 26.5882ZM75.1611 26.6662C75.1611 25.7322 74.9454 24.9622 74.514 24.3562C74.0428 23.7242 73.4121 23.4082 72.6178 23.4082C72.0791 23.4082 71.5915 23.5842 71.154 23.9312C70.7165 24.2812 70.4313 24.7382 70.2974 25.3042C70.2309 25.5682 70.1962 25.7842 70.1962 25.9542V27.5542C70.1962 28.2522 70.4149 28.8412 70.8504 29.3222C71.2879 29.8022 71.8563 30.0432 72.5575 30.0432C73.3784 30.0432 74.0172 29.7332 74.4742 29.1152C74.9321 28.4962 75.1611 27.6802 75.1611 26.6662Z" fill="white"/>
<path d="M89.9956 27.772C89.9956 28.904 89.5939 29.825 88.7874 30.536C87.9011 31.313 86.6673 31.701 85.0818 31.701C83.618 31.701 82.4445 31.425 81.5562 30.872L82.0611 29.095C83.0179 29.661 84.0678 29.945 85.2116 29.945C86.0325 29.945 86.6714 29.763 87.1303 29.401C87.5873 29.039 87.8152 28.553 87.8152 27.947C87.8152 27.407 87.6271 26.952 87.2499 26.583C86.8748 26.214 86.2482 25.871 85.3731 25.554C82.9914 24.685 81.8015 23.412 81.8015 21.738C81.8015 20.644 82.2186 19.747 83.0537 19.049C83.8858 18.35 84.9959 18.001 86.3841 18.001C87.622 18.001 88.6504 18.212 89.4712 18.633L88.9264 20.371C88.1597 19.963 87.2929 19.759 86.3228 19.759C85.5561 19.759 84.9571 19.944 84.5278 20.312C84.1649 20.641 83.9829 21.042 83.9829 21.517C83.9829 22.043 84.1904 22.478 84.6075 22.82C84.9704 23.136 85.6297 23.478 86.5865 23.847C87.757 24.308 88.6166 24.847 89.1697 25.465C89.7206 26.081 89.9956 26.852 89.9956 27.772Z" fill="white"/>
<path d="M97.2014 23.5078H94.7992V28.1668C94.7992 29.3518 95.2224 29.9438 96.0708 29.9438C96.4603 29.9438 96.7833 29.9108 97.0389 29.8448L97.0992 31.4638C96.6698 31.6208 96.1046 31.6998 95.4043 31.6998C94.5436 31.6998 93.871 31.4428 93.3855 30.9298C92.9019 30.4158 92.6586 29.5538 92.6586 28.3428V23.5058H91.2275V21.9058H92.6586V20.1488L94.7992 19.5168V21.9058H97.2014V23.5078Z" fill="white"/>
<path d="M108.04 26.6272C108.04 28.1022 107.609 29.3132 106.748 30.2602C105.845 31.2352 104.647 31.7212 103.154 31.7212C101.714 31.7212 100.569 31.2542 99.714 30.3202C98.8594 29.3862 98.4321 28.2072 98.4321 26.7862C98.4321 25.2992 98.8717 24.0812 99.7539 23.1342C100.634 22.1862 101.822 21.7122 103.315 21.7122C104.755 21.7122 105.913 22.1792 106.787 23.1142C107.623 24.0212 108.04 25.1922 108.04 26.6272ZM105.779 26.6962C105.779 25.8112 105.586 25.0522 105.194 24.4192C104.737 23.6532 104.084 23.2712 103.238 23.2712C102.362 23.2712 101.696 23.6542 101.239 24.4192C100.848 25.0532 100.654 25.8242 100.654 26.7362C100.654 27.6212 100.848 28.3802 101.239 29.0122C101.71 29.7782 102.369 30.1602 103.218 30.1602C104.05 30.1602 104.703 29.7702 105.175 28.9922C105.576 28.3472 105.779 27.5802 105.779 26.6962Z" fill="white"/>
<path d="M115.124 23.7832C114.908 23.7442 114.678 23.7242 114.437 23.7242C113.67 23.7242 113.077 24.0072 112.66 24.5742C112.297 25.0742 112.115 25.7062 112.115 26.4692V31.5042H109.937L109.957 24.9302C109.957 23.8242 109.93 22.8172 109.875 21.9092H111.774L111.853 23.7452H111.914C112.144 23.1142 112.507 22.6062 113.003 22.2252C113.489 21.8822 114.013 21.7112 114.579 21.7112C114.78 21.7112 114.962 21.7252 115.124 21.7502V23.7832Z" fill="white"/>
<path d="M124.871 26.2519C124.871 26.6339 124.845 26.9559 124.791 27.2189H118.253C118.279 28.1669 118.594 28.8919 119.202 29.3919C119.753 29.8389 120.465 30.0629 121.34 30.0629C122.308 30.0629 123.191 29.9119 123.986 29.6089L124.327 31.0889C123.399 31.4849 122.303 31.6819 121.039 31.6819C119.517 31.6819 118.323 31.2439 117.455 30.3689C116.588 29.4939 116.153 28.3189 116.153 26.8449C116.153 25.3979 116.557 24.1929 117.366 23.2319C118.212 22.2059 119.356 21.6929 120.795 21.6929C122.209 21.6929 123.279 22.2059 124.006 23.2319C124.582 24.0469 124.871 25.0549 124.871 26.2519ZM122.793 25.6989C122.807 25.0669 122.665 24.5209 122.369 24.0599C121.992 23.4669 121.413 23.1709 120.633 23.1709C119.92 23.1709 119.341 23.4599 118.898 24.0399C118.535 24.5009 118.319 25.0539 118.253 25.6979H122.793V25.6989Z" fill="white"/>
<path d="M50.1399 10.0089C50.1399 11.1859 49.7791 12.0719 49.0584 12.6669C48.3909 13.2159 47.4423 13.4909 46.2136 13.4909C45.6043 13.4909 45.083 13.4649 44.6465 13.4129V6.98195C45.2159 6.89195 45.8292 6.84595 46.4916 6.84595C47.662 6.84595 48.5442 7.09495 49.1392 7.59295C49.8056 8.15595 50.1399 8.96095 50.1399 10.0089ZM49.0104 10.0379C49.0104 9.27495 48.8039 8.68995 48.3909 8.28195C47.9779 7.87495 47.3748 7.67095 46.5805 7.67095C46.2432 7.67095 45.956 7.69295 45.7178 7.73895V12.6279C45.8496 12.6479 46.0909 12.6569 46.4415 12.6569C47.2613 12.6569 47.8941 12.4339 48.3398 11.9879C48.7855 11.5419 49.0104 10.8919 49.0104 10.0379Z" fill="white"/>
<path d="M56.1293 11.0368C56.1293 11.7618 55.9177 12.3558 55.4945 12.8218C55.0508 13.3008 54.463 13.5398 53.7291 13.5398C53.0217 13.5398 52.4585 13.3108 52.0383 12.8508C51.6192 12.3918 51.4097 11.8128 51.4097 11.1148C51.4097 10.3848 51.6254 9.7858 52.0588 9.3208C52.4922 8.8558 53.0749 8.6228 53.8088 8.6228C54.5162 8.6228 55.0846 8.8518 55.5149 9.3108C55.9238 9.7568 56.1293 10.3328 56.1293 11.0368ZM55.0181 11.0708C55.0181 10.6358 54.922 10.2628 54.7309 9.9518C54.506 9.5758 54.186 9.3878 53.77 9.3878C53.3396 9.3878 53.0125 9.5758 52.7876 9.9518C52.5954 10.2628 52.5004 10.6418 52.5004 11.0898C52.5004 11.5248 52.5965 11.8978 52.7876 12.2088C53.0197 12.5848 53.3427 12.7728 53.7598 12.7728C54.1686 12.7728 54.4896 12.5818 54.7206 12.1988C54.919 11.8818 55.0181 11.5058 55.0181 11.0708Z" fill="white"/>
<path d="M64.1595 8.71899L62.6517 13.433H61.6704L61.0458 11.386C60.8874 10.875 60.7586 10.367 60.6584 9.86299H60.639C60.546 10.381 60.4172 10.888 60.2516 11.386L59.5881 13.433H58.5956L57.1777 8.71899H58.2787L58.8235 10.96C58.9554 11.49 59.0637 11.995 59.1506 12.473H59.17C59.2498 12.079 59.3816 11.577 59.5677 10.97L60.2516 8.71999H61.1245L61.7798 10.922C61.9382 11.459 62.067 11.976 62.1662 12.474H62.1958C62.2684 11.989 62.3778 11.472 62.5229 10.922L63.1076 8.71999H64.1595V8.71899Z" fill="white"/>
<path d="M69.7136 13.4331H68.6423V10.7331C68.6423 9.90112 68.3192 9.48512 67.6712 9.48512C67.3532 9.48512 67.0967 9.59912 66.8973 9.82812C66.7001 10.0571 66.5999 10.3271 66.5999 10.6361V13.4321H65.5286V10.0661C65.5286 9.65212 65.5153 9.20312 65.4897 8.71712H66.4312L66.4813 9.45412H66.5109C66.6357 9.22512 66.8217 9.03612 67.066 8.88512C67.3563 8.70912 67.6814 8.62012 68.0371 8.62012C68.4869 8.62012 68.861 8.76212 69.1585 9.04712C69.5285 9.39612 69.7136 9.91712 69.7136 10.6091V13.4331Z" fill="white"/>
<path d="M72.6674 13.4329H71.5972V6.55591H72.6674V13.4329Z" fill="white"/>
<path d="M78.975 11.0368C78.975 11.7618 78.7634 12.3558 78.3402 12.8218C77.8965 13.3008 77.3077 13.5398 76.5748 13.5398C75.8664 13.5398 75.3031 13.3108 74.884 12.8508C74.4649 12.3918 74.2554 11.8128 74.2554 11.1148C74.2554 10.3848 74.4711 9.7858 74.9045 9.3208C75.3379 8.8558 75.9206 8.6228 76.6535 8.6228C77.3619 8.6228 77.9292 8.8518 78.3606 9.3108C78.7695 9.7568 78.975 10.3328 78.975 11.0368ZM77.8628 11.0708C77.8628 10.6358 77.7667 10.2628 77.5756 9.9518C77.3517 9.5758 77.0307 9.3878 76.6157 9.3878C76.1843 9.3878 75.8572 9.5758 75.6333 9.9518C75.4411 10.2628 75.3461 10.6418 75.3461 11.0898C75.3461 11.5248 75.4422 11.8978 75.6333 12.2088C75.8654 12.5848 76.1884 12.7728 76.6055 12.7728C77.0144 12.7728 77.3343 12.5818 77.5653 12.1988C77.7647 11.8818 77.8628 11.5058 77.8628 11.0708Z" fill="white"/>
<path d="M84.1596 13.4328H83.1977L83.118 12.8898H83.0883C82.7592 13.3228 82.29 13.5398 81.6807 13.5398C81.2258 13.5398 80.8578 13.3968 80.5808 13.1128C80.3293 12.8548 80.2036 12.5338 80.2036 12.1528C80.2036 11.5768 80.4489 11.1378 80.9427 10.8338C81.4354 10.5298 82.1285 10.3808 83.0209 10.3878V10.2998C83.0209 9.6788 82.6876 9.3688 82.0201 9.3688C81.5448 9.3688 81.1257 9.4858 80.7638 9.7178L80.5461 9.0298C80.9938 8.7588 81.5468 8.6228 82.199 8.6228C83.4584 8.6228 84.0901 9.2728 84.0901 10.5728V12.3088C84.0901 12.7798 84.1136 13.1548 84.1596 13.4328ZM83.0474 11.8128V11.0858C81.8657 11.0658 81.2749 11.3828 81.2749 12.0358C81.2749 12.2818 81.3424 12.4658 81.4804 12.5888C81.6184 12.7118 81.7942 12.7728 82.0037 12.7728C82.2389 12.7728 82.4586 12.6998 82.659 12.5548C82.8604 12.4088 82.9841 12.2238 83.0301 11.9968C83.0413 11.9458 83.0474 11.8838 83.0474 11.8128Z" fill="white"/>
<path d="M90.247 13.4329H89.2963L89.2462 12.6759H89.2166C88.913 13.2519 88.3957 13.5399 87.6689 13.5399C87.0883 13.5399 86.6048 13.3169 86.2215 12.8709C85.8381 12.4249 85.647 11.8459 85.647 11.1349C85.647 10.3719 85.8545 9.75391 86.2715 9.28191C86.6753 8.84191 87.1701 8.62191 87.7589 8.62191C88.4059 8.62191 88.8588 8.83491 89.1164 9.26191H89.1368V6.55591H90.2091V12.1629C90.2091 12.6219 90.2214 13.0449 90.247 13.4329ZM89.1368 11.4449V10.6589C89.1368 10.5229 89.1266 10.4129 89.1072 10.3289C89.0469 10.0769 88.9171 9.86491 88.7198 9.69391C88.5204 9.52291 88.2802 9.43691 88.0032 9.43691C87.6035 9.43691 87.2907 9.59191 87.0607 9.90291C86.8327 10.2139 86.7172 10.6109 86.7172 11.0959C86.7172 11.5619 86.8266 11.9399 87.0464 12.2309C87.2784 12.5409 87.5912 12.6959 87.9827 12.6959C88.3344 12.6959 88.6155 12.5669 88.8291 12.3079C89.0356 12.0689 89.1368 11.7809 89.1368 11.4449Z" fill="white"/>
<path d="M99.4091 11.0368C99.4091 11.7618 99.1974 12.3558 98.7743 12.8218C98.3306 13.3008 97.7439 13.5398 97.0089 13.5398C96.3025 13.5398 95.7393 13.3108 95.3181 12.8508C94.899 12.3918 94.6895 11.8128 94.6895 11.1148C94.6895 10.3848 94.9051 9.7858 95.3386 9.3208C95.772 8.8558 96.3547 8.6228 97.0896 8.6228C97.796 8.6228 98.3654 8.8518 98.7947 9.3108C99.2036 9.7568 99.4091 10.3328 99.4091 11.0368ZM98.2989 11.0708C98.2989 10.6358 98.2028 10.2628 98.0117 9.9518C97.7858 9.5758 97.4668 9.3878 97.0498 9.3878C96.6204 9.3878 96.2933 9.5758 96.0674 9.9518C95.8752 10.2628 95.7802 10.6418 95.7802 11.0898C95.7802 11.5248 95.8763 11.8978 96.0674 12.2088C96.2995 12.5848 96.6225 12.7728 97.0395 12.7728C97.4484 12.7728 97.7704 12.5818 98.0015 12.1988C98.1987 11.8818 98.2989 11.5058 98.2989 11.0708Z" fill="white"/>
<path d="M105.169 13.4331H104.099V10.7331C104.099 9.90112 103.776 9.48512 103.127 9.48512C102.809 9.48512 102.552 9.59912 102.354 9.82812C102.156 10.0571 102.056 10.3271 102.056 10.6361V13.4321H100.984V10.0661C100.984 9.65212 100.972 9.20312 100.946 8.71712H101.887L101.937 9.45412H101.966C102.092 9.22512 102.278 9.03612 102.522 8.88512C102.813 8.70912 103.137 8.62012 103.494 8.62012C103.942 8.62012 104.317 8.76212 104.614 9.04712C104.985 9.39612 105.169 9.91712 105.169 10.6091V13.4331Z" fill="white"/>
<path d="M112.379 9.50392H111.199V11.7939C111.199 12.3759 111.409 12.6669 111.824 12.6669C112.016 12.6669 112.176 12.6509 112.301 12.6179L112.329 13.4129C112.117 13.4909 111.839 13.5299 111.497 13.5299C111.074 13.5299 110.745 13.4039 110.506 13.1519C110.267 12.8999 110.149 12.4759 110.149 11.8809V9.50392H109.444V8.71892H110.149V7.85492L111.198 7.54492V8.71792H112.378V9.50392H112.379Z" fill="white"/>
<path d="M118.05 13.4329H116.978V10.7529C116.978 9.90791 116.655 9.48491 116.008 9.48491C115.511 9.48491 115.172 9.72991 114.986 10.2199C114.954 10.3229 114.936 10.4489 114.936 10.5969V13.4319H113.865V6.55591H114.936V9.39691H114.956C115.293 8.87991 115.777 8.62191 116.403 8.62191C116.847 8.62191 117.214 8.76391 117.505 9.04891C117.868 9.40391 118.05 9.93191 118.05 10.6299V13.4329Z" fill="white"/>
<path d="M123.9 10.8528C123.9 11.0408 123.886 11.1988 123.86 11.3278H120.648C120.662 11.7938 120.815 12.1488 121.113 12.3948C121.385 12.6148 121.735 12.7248 122.165 12.7248C122.64 12.7248 123.073 12.6508 123.464 12.5018L123.631 13.2298C123.175 13.4238 122.637 13.5208 122.014 13.5208C121.268 13.5208 120.68 13.3058 120.255 12.8758C119.828 12.4458 119.616 11.8688 119.616 11.1448C119.616 10.4338 119.814 9.84177 120.211 9.36977C120.626 8.86577 121.187 8.61377 121.896 8.61377C122.589 8.61377 123.115 8.86577 123.471 9.36977C123.758 9.76977 123.9 10.2648 123.9 10.8528ZM122.878 10.5818C122.886 10.2708 122.816 10.0028 122.671 9.77677C122.485 9.48577 122.201 9.33977 121.818 9.33977C121.468 9.33977 121.183 9.48177 120.966 9.76677C120.788 9.99377 120.682 10.2648 120.648 10.5818H122.878Z" fill="white"/>
</svg>
