<svg width="175" height="52" viewBox="0 0 175 52" fill="none" xmlns="http://www.w3.org/2000/svg">
<path d="M34.7738 42.481L5.81662 13.5238C4.81415 12.5213 4.31291 12.0201 4.32047 11.4005C4.32802 10.7809 4.84133 10.292 5.86795 9.31427L7.28974 7.96018C8.38737 6.91482 8.93618 6.39214 9.58614 6.43986C10.2361 6.48758 10.7027 7.08481 11.6359 8.27928L16.7259 14.7946C18.2001 16.8357 19.2773 16.3538 19.2773 15.0781V4.41188C19.2773 3.0254 19.2773 2.33215 19.7081 1.90143C20.1388 1.4707 20.832 1.4707 22.2185 1.4707H24.1768C25.7254 1.4707 26.4997 1.4707 26.9386 1.9664C27.3775 2.46209 27.2838 3.2307 27.0963 4.76792L26.081 13.0937C25.6558 15.3616 27.215 15.3143 27.7819 14.7946L35.199 7.3775C36.1794 6.39711 36.6696 5.90691 37.2787 5.90691C37.8879 5.90691 38.3781 6.39711 39.3585 7.3775L41.1522 9.17128C42.1326 10.1517 42.6228 10.6419 42.6228 11.251C42.6228 11.8601 42.1326 12.3503 41.1522 13.3307L34.3021 20.1808C32.6012 21.74 33.0884 22.7942 34.1914 22.7942L43.7186 21.489C45.2737 21.2759 46.0513 21.1694 46.5552 21.6089C47.059 22.0485 47.059 22.8333 47.059 24.4029V26.3112C47.059 27.6977 47.059 28.391 46.6283 28.8217C46.1976 29.2524 45.5043 29.2524 44.1179 29.2524H33.7352C32.0342 29.2524 32.0342 30.3864 33.1682 31.2368L40.1382 36.5668C41.381 37.5172 42.0023 37.9924 42.0465 38.6579C42.0907 39.3235 41.5376 39.8767 40.4313 40.9829L38.9332 42.481C37.9528 43.4614 37.4627 43.9516 36.8535 43.9516C36.2444 43.9516 35.7542 43.4614 34.7738 42.481Z" fill="#FFB72D"/>
<path d="M20.5924 48.3745C7.66158 46.9788 1.39764 36.4263 0.210722 27.9297C0.032004 26.6504 -0.0573549 26.0107 0.382295 25.5053C0.821944 25 1.52835 25 2.94118 25H5.42169C6.74364 25 7.40462 25 7.81666 25.3506C8.22869 25.7013 8.34922 26.4451 8.59027 27.9328C9.84022 35.647 15.9868 38.8923 20.6132 39.8458C22.1165 40.1556 22.8682 40.3105 23.1988 40.7162C23.5294 41.1219 23.5294 41.7838 23.5294 43.1077V45.5882C23.5294 47.0025 23.5294 47.7096 23.0413 48.1479C22.5532 48.5861 21.8996 48.5156 20.5924 48.3745Z" fill="url(#paint0_linear_221_330)"/>
<path d="M60.2516 10.4207L60.2458 10.409L60.2394 10.3975C59.7353 9.49671 58.9508 9.00712 57.9365 9.00712C57.5741 9.00712 57.2288 9.07062 56.908 9.20613C56.5947 9.33847 56.3158 9.52856 56.0731 9.77201C55.8362 10.0097 55.6553 10.2932 55.5269 10.6136C55.3946 10.9306 55.3309 11.2678 55.3309 11.6195V38.6062C55.3309 39.3216 55.5883 39.948 56.0925 40.4538C56.5967 40.9596 57.2218 41.2187 57.9365 41.2187C58.6512 41.2187 59.2763 40.9596 59.7805 40.4538C60.2847 39.948 60.5422 39.3216 60.5422 38.6062V22.7075L69.0109 39.666C69.2444 40.1485 69.5599 40.5433 69.9718 40.8159C70.3871 41.0909 70.8661 41.2187 71.3856 41.2187C72.3721 41.2187 73.1467 40.769 73.6449 39.9145L73.654 39.899L73.662 39.8829L82.2291 22.7097V38.6062C82.2291 39.3216 82.4866 39.948 82.9907 40.4538C83.4949 40.9596 84.12 41.2187 84.8347 41.2187C85.5494 41.2187 86.1746 40.9596 86.6788 40.4538C87.1829 39.948 87.4404 39.3216 87.4404 38.6062V11.6195C87.4404 11.2678 87.3766 10.9306 87.2443 10.6136C87.115 10.2909 86.9269 10.0078 86.6789 9.77183C86.4438 9.52314 86.1614 9.33419 85.8393 9.20421C85.5228 9.07126 85.186 9.00712 84.8347 9.00712C83.8619 9.00712 83.0929 9.50488 82.5464 10.373L82.5318 10.3962L82.5196 10.4207L71.3856 32.7433L60.2516 10.4207ZM98.6562 48.8514L98.6567 48.8504L109.798 22.0434C109.962 21.6675 110.055 21.2889 110.055 20.9132C110.055 20.5636 109.981 20.2277 109.833 19.9111C109.705 19.6094 109.527 19.3411 109.3 19.1114C109.067 18.8631 108.792 18.6714 108.478 18.5387C108.16 18.4045 107.822 18.3397 107.469 18.3397C106.859 18.3397 106.305 18.4815 105.878 18.8351C105.514 19.1343 105.243 19.5245 105.059 19.9857L100.123 31.8454L95.1887 20.0233C95.1886 20.0229 95.1884 20.0224 95.1882 20.0219C94.9717 19.4953 94.6412 19.0691 94.1847 18.7788C93.7513 18.4905 93.2728 18.3397 92.76 18.3397C92.4071 18.3397 92.0687 18.4045 91.7509 18.5387C91.4369 18.6714 91.1614 18.8631 90.9287 19.1114C90.6986 19.3439 90.5196 19.6159 90.3911 19.9221C90.2589 20.2373 90.1931 20.5692 90.1931 20.9132C90.1931 21.3016 90.2739 21.6791 90.4305 22.042L97.3177 38.6447L93.9013 46.8444C93.7423 47.1982 93.662 47.5711 93.662 47.9583C93.662 48.6717 93.8963 49.2988 94.3783 49.7991L94.3783 49.7992L94.3849 49.8058C94.8825 50.3051 95.5105 50.5512 96.2289 50.5512C96.7649 50.5512 97.2584 50.381 97.6958 50.0576C98.1283 49.7507 98.45 49.3448 98.6562 48.8514ZM131.772 25.3661L131.776 25.362C132.332 24.7924 132.989 24.3397 133.754 24.0041C134.507 23.6736 135.322 23.5062 136.206 23.5062C137.077 23.5062 137.886 23.6732 138.64 24.0041C139.404 24.3397 140.062 24.7924 140.618 25.362L140.622 25.3661C141.191 25.9367 141.636 26.6025 141.958 27.3682L141.958 27.3682L141.962 27.3778C142.291 28.1209 142.457 28.9193 142.457 29.7792C142.457 30.639 142.291 31.4451 141.96 32.203L141.959 32.2068C141.637 32.9597 141.192 33.6203 140.622 34.1922L140.618 34.1964C140.062 34.7659 139.404 35.2187 138.64 35.5543C137.886 35.8852 137.077 36.0522 136.206 36.0522C135.322 36.0522 134.507 35.8847 133.754 35.5543C132.988 35.218 132.33 34.7709 131.774 34.2139C131.217 33.6427 130.77 32.975 130.435 32.2063C130.116 31.4479 129.956 30.6405 129.956 29.7792C129.956 28.9178 130.116 28.1105 130.435 27.3521C130.77 26.5836 131.216 25.9234 131.772 25.3661ZM144.271 21.6905L144.269 21.6881C142.023 19.4619 139.326 18.3397 136.206 18.3397C133.062 18.3397 130.364 19.4611 128.142 21.6905C125.92 23.9198 124.803 26.6264 124.803 29.7792C124.803 32.932 125.92 35.6385 128.142 37.8679C130.364 40.0973 133.062 41.2187 136.206 41.2187C137.559 41.2187 138.837 41.0014 140.039 40.5631C140.919 40.242 141.751 39.8175 142.533 39.2906C142.641 39.7286 142.862 40.1237 143.193 40.4668L143.199 40.4733L143.206 40.4796C143.711 40.9704 144.334 41.2187 145.043 41.2187C145.744 41.2187 146.356 40.9673 146.849 40.4732C147.35 39.9701 147.61 39.3513 147.61 38.6451V29.7792C147.61 26.6264 146.493 23.9198 144.271 21.6905ZM107.914 14.232H115.017V38.6062C115.017 39.3216 115.275 39.948 115.779 40.4538C116.283 40.9596 116.908 41.2187 117.623 41.2187C118.337 41.2187 118.963 40.9596 119.467 40.4538C119.971 39.948 120.228 39.3216 120.228 38.6062V14.232H127.332C128.046 14.232 128.671 13.9729 129.176 13.4671C129.68 12.9613 129.937 12.3349 129.937 11.6195C129.937 10.9041 129.68 10.2778 129.176 9.77201C128.671 9.26615 128.046 9.00712 127.332 9.00712H107.914C107.199 9.00712 106.574 9.26615 106.07 9.77201C105.566 10.2778 105.308 10.9041 105.308 11.6195C105.308 12.3349 105.566 12.9613 106.07 13.4671C106.574 13.9729 107.199 14.232 107.914 14.232Z" fill="#222238" stroke="#222238" stroke-width="1.10294"/>
<path d="M173.77 30.2273C174.371 30.2273 174.672 30.2273 174.858 30.4321C175.045 30.637 175.014 30.9096 174.952 31.4548C174.653 34.1025 173.392 36.5895 171.357 38.4895C169.011 40.6807 165.829 41.9118 162.511 41.9118C159.193 41.9118 156.01 40.6807 153.664 38.4895C151.63 36.5895 150.368 34.1025 150.069 31.4548C150.007 30.9096 149.977 30.637 150.163 30.4321C150.35 30.2273 150.65 30.2273 151.251 30.2273L155.254 30.2273C155.805 30.2273 156.08 30.2273 156.251 30.3603C156.422 30.4934 156.498 30.8111 156.649 31.4464C156.895 32.4786 157.451 33.4336 158.264 34.1931C159.391 35.2449 160.918 35.8358 162.511 35.8358C164.103 35.8358 165.631 35.2449 166.757 34.1931C167.57 33.4336 168.126 32.4786 168.372 31.4464C168.524 30.8111 168.6 30.4934 168.77 30.3603C168.941 30.2273 169.216 30.2273 169.767 30.2273H173.77Z" fill="url(#paint1_linear_221_330)"/>
<path d="M150.002 11.0425C150 11.1029 150 11.1742 150 11.317V27.9212C150 28.3531 150 28.569 150.105 28.7241C150.151 28.7913 150.21 28.8489 150.278 28.8938C150.435 28.9974 150.655 28.9974 151.094 28.9974C151.135 28.9974 151.177 28.9974 151.218 28.9974C151.228 28.9974 151.239 28.9974 151.25 28.9974H155.25C155.8 28.9974 156.075 28.9974 156.246 28.8644C156.337 28.7929 156.402 28.6682 156.465 28.4695C156.52 28.2984 156.573 28.0724 156.643 27.7783C156.761 27.2856 156.949 26.8105 157.201 26.3659C157.427 25.9694 157.704 25.5971 158.028 25.2582C158.102 25.1809 158.178 25.1053 158.257 25.0316C159.383 23.9798 160.909 23.3889 162.5 23.3889C164.091 23.3889 165.617 23.9798 166.743 25.0316C166.822 25.1053 166.898 25.1809 166.972 25.2582C167.296 25.5971 167.573 25.9694 167.799 26.3659C168.051 26.8105 168.239 27.2856 168.357 27.7783C168.427 28.0724 168.48 28.2984 168.535 28.4695C168.598 28.6682 168.663 28.7929 168.754 28.8644C168.925 28.9974 169.2 28.9974 169.75 28.9974H173.75C174.35 28.9974 174.651 28.9974 174.837 28.7926C175.023 28.5877 174.992 28.3151 174.931 27.7699C174.876 27.281 174.788 26.7976 174.668 26.3224C174.458 25.4862 174.149 24.6753 173.75 23.9043C173.622 23.6569 173.484 23.4137 173.338 23.175C173.279 23.0794 173.219 22.9845 173.157 22.8904C172.929 22.5425 172.681 22.205 172.413 21.8797C172.341 21.7915 172.267 21.7042 172.191 21.6178C171.925 21.3116 171.64 21.017 171.339 20.7353C171.26 20.6618 171.181 20.5894 171.1 20.5182C168.781 18.4629 165.704 17.313 162.5 17.313C160.408 17.313 158.37 17.8031 156.563 18.7152V11.317C156.563 11.1742 156.563 11.1029 156.56 11.0425C156.496 9.43912 155.19 8.15375 153.56 8.09075C153.499 8.08838 153.426 8.08838 153.281 8.08838C153.136 8.08838 153.064 8.08838 153.002 8.09075C151.373 8.15375 150.066 9.43912 150.002 11.0425Z" fill="#222238"/>
<defs>
<linearGradient id="paint0_linear_221_330" x1="3.40184" y1="25" x2="23.5294" y2="45.8363" gradientUnits="userSpaceOnUse">
<stop stop-color="#C27AF7"/>
<stop offset="1" stop-color="#9332FA"/>
</linearGradient>
<linearGradient id="paint1_linear_221_330" x1="175.022" y1="30.3681" x2="147.654" y2="30.3681" gradientUnits="userSpaceOnUse">
<stop stop-color="#9233FF"/>
<stop offset="1" stop-color="#BD77FB"/>
</linearGradient>
</defs>
</svg>
